<?xml version="1.0" encoding="UTF-8"?>
<svg id="Layer_1" data-name="Layer 1" xmlns="http://www.w3.org/2000/svg" viewBox="0 0 2750.67 1000">
  <defs>
    <style>
      .cls-1 {
        font-family: Poppins-Medium, Poppins;
        font-size: 335.2px;
        font-weight: 500;
        letter-spacing: 0em;
      }

      .cls-1, .cls-2 {
        fill: #ffb31a;
      }

      .cls-3 {
        fill: #16295b;
      }
    </style>
  </defs>
  <g>
    <g>
      <path class="cls-3" d="M746.78,318.26c-7.15-6.58-16.51-9.87-28.09-9.87s-21.28,3.29-28.43,9.87c-7.15,6.58-10.73,14.87-10.73,24.86s3.58,17.88,10.73,24.35,16.63,9.7,28.43,9.7,20.94-3.24,28.09-9.7c7.15-6.47,10.73-14.58,10.73-24.35s-3.57-18.27-10.73-24.86Z"/>
      <path class="cls-3" d="M227.87,345.78h58.2c2.36,0,4.27,1.91,4.27,4.27v228.8c0,2.36-1.91,4.27-4.27,4.27h-58.2c-2.36,0-4.27-1.91-4.27-4.27v-228.79c0-2.36,1.91-4.27,4.27-4.27Z"/>
      <path class="cls-3" d="M420.53,526.25h-15.86c-5.68,0-9.7-1.13-12.09-3.4-2.38-2.27-3.57-6.01-3.57-11.24v-64.02h31.18c1.96,0,3.55-1.59,3.55-3.55v-48.4c0-1.96-1.59-3.55-3.55-3.55h-31.18v-42.76c0-1.96-1.59-3.55-3.55-3.55h-59.98c-1.96,0-3.55,1.59-3.55,3.55v161.26c0,48.35,24.4,72.53,73.21,72.53h25.39c1.96,0,3.55-1.59,3.55-3.55v-49.77c0-1.96-1.59-3.55-3.55-3.55Z"/>
      <path class="cls-3" d="M644.79,392.09h-60.06c-1.84,0-3.34,1.49-3.34,3.34v23.22c-5.23-8.85-12.6-15.89-22.14-21.11-9.53-5.22-20.89-7.83-34.05-7.83-15.21,0-29,3.97-41.37,11.92-12.38,7.95-22.13,19.3-29.29,34.05-7.15,14.76-10.73,32.01-10.73,51.75s3.58,37.06,10.73,51.93c7.15,14.87,16.91,26.28,29.29,34.22,12.37,7.95,26.16,11.92,41.37,11.92,12.94,0,24.23-2.61,33.88-7.83,9.65-5.22,17.08-12.26,22.31-21.11v23.22c0,1.84,1.49,3.34,3.34,3.34h60.06c1.84,0,3.34-1.49,3.34-3.34v-184.35c0-1.84-1.49-3.34-3.34-3.34ZM571.34,516.71c-6.7,7.04-14.93,10.56-24.69,10.56s-18.27-3.58-24.86-10.73c-6.59-7.15-9.87-16.85-9.87-29.11s3.29-22.19,9.87-29.11c6.58-6.92,14.87-10.39,24.86-10.39s17.99,3.52,24.69,10.56c6.69,7.04,10.05,16.69,10.05,28.94s-3.35,22.25-10.05,29.29Z"/>
      <path class="cls-3" d="M749.66,392.09h-60.06c-1.84,0-3.34,1.49-3.34,3.34v202.03c0,5.22-1.25,8.97-3.75,11.24-2.5,2.27-6.59,3.41-12.26,3.41h-10.96c-1.84,0-3.34,1.49-3.34,3.34v55.59c0,1.84,1.49,3.34,3.34,3.34h20.84c48.57,0,72.87-24.18,72.87-72.53v-206.41c0-1.84-1.49-3.34-3.34-3.34Z"/>
      <path class="cls-3" d="M980.86,392.09h-60.06c-1.84,0-3.34,1.49-3.34,3.34v23.22c-5.23-8.85-12.6-15.89-22.14-21.11-9.53-5.22-20.89-7.83-34.05-7.83-15.21,0-29,3.97-41.37,11.92-12.38,7.95-22.13,19.3-29.29,34.05-7.15,14.76-10.73,32.01-10.73,51.75s3.58,37.06,10.73,51.93c7.15,14.87,16.91,26.28,29.29,34.22,12.37,7.95,26.16,11.92,41.37,11.92,12.94,0,24.23-2.61,33.88-7.83,9.65-5.22,17.08-12.26,22.31-21.11v23.22c0,1.84,1.49,3.34,3.34,3.34h60.06c1.84,0,3.34-1.49,3.34-3.34v-184.35c0-1.84-1.49-3.34-3.34-3.34ZM907.41,516.71c-6.7,7.04-14.93,10.56-24.69,10.56s-18.27-3.58-24.86-10.73c-6.59-7.15-9.87-16.85-9.87-29.11s3.29-22.19,9.87-29.11c6.58-6.92,14.87-10.39,24.86-10.39s17.99,3.52,24.69,10.56c6.69,7.04,10.05,16.69,10.05,28.94s-3.35,22.25-10.05,29.29Z"/>
      <path class="cls-3" d="M1083.39,309.15l-60.87,27.51c-1.11.5-1.83,1.61-1.83,2.83v35.84c0,2.19,2.2,3.69,4.24,2.89l60.87-23.86c1.19-.47,1.97-1.61,1.97-2.89v-39.49c0-2.26-2.33-3.76-4.39-2.83Z"/>
      <rect class="cls-3" x="1020.7" y="392.09" width="67.08" height="191.02" rx="3.11" ry="3.11"/>
    </g>
    <path class="cls-2" d="M715.42,804.23c-86.67,0-167.98-41.66-218.71-111.75-1.94-2.68-1.25-6.45,1.47-8.33l47.4-32.74c2.66-1.83,6.25-1.17,8.16,1.43,37.75,51.42,97.76,81.94,161.68,81.94s123.93-30.52,161.68-81.94c1.91-2.6,5.5-3.27,8.16-1.43l47.4,32.74c2.72,1.88,3.41,5.65,1.47,8.33-50.74,70.09-132.05,111.75-218.72,111.75Z"/>
  </g>
  <text class="cls-1" transform="translate(1177.12 582.34)"><tspan x="0" y="0">Turismo</tspan></text>
</svg>